<svg xmlns="http://www.w3.org/2000/svg" viewBox="0 0 64 64" role="img" aria-label="RedNote Downloader icon">
  <defs>
    <linearGradient id="bg" x1="10%" y1="8%" x2="88%" y2="92%">
      <stop offset="0%" stop-color="#8aa2ff"/>
      <stop offset="52%" stop-color="#635bff"/>
      <stop offset="100%" stop-color="#4c44f4"/>
    </linearGradient>
    <linearGradient id="glow" x1="0%" y1="0%" x2="100%" y2="100%">
      <stop offset="0%" stop-color="#ffffff" stop-opacity="0.9"/>
      <stop offset="100%" stop-color="#ffffff" stop-opacity="0"/>
    </linearGradient>
    <filter id="shadow" x="-20%" y="-20%" width="140%" height="140%">
      <feDropShadow dx="0" dy="4" stdDeviation="4" flood-color="#2b2c63" flood-opacity="0.2"/>
    </filter>
  </defs>

  <rect x="4" y="4" width="56" height="56" rx="18" fill="url(#bg)"/>
  <path d="M15 13c12-5 29-2 38 6-6-1-13 0-17 4-9 9-8 20-21 24-6 2-12 1-15 0V31c0-7 5-14 15-18Z" fill="url(#glow)" opacity=".45"/>

  <g filter="url(#shadow)">
    <path d="M22 14h17l9 9v27c0 2.2-1.8 4-4 4H22c-2.2 0-4-1.8-4-4V18c0-2.2 1.8-4 4-4Z" fill="#ffffff"/>
    <path d="M39 14v7c0 2.2 1.8 4 4 4h5Z" fill="#dfe7ff"/>
    <path d="M33 24v12.5l4.2-4.2a2 2 0 1 1 2.8 2.8l-7.6 7.6a2 2 0 0 1-2.8 0L22 35.1a2 2 0 1 1 2.8-2.8l4.2 4.2V24a2 2 0 0 1 4 0Z" fill="#0a2540"/>
    <rect x="23" y="44" width="20" height="3.6" rx="1.8" fill="#0a2540"/>
  </g>

  <circle cx="47" cy="18" r="5.5" fill="#ff5a5f" stroke="#ffffff" stroke-width="2"/>
</svg>
